<svg xmlns="http://www.w3.org/2000/svg" width="158.30833" height="111.68818">
	<path class="p1" d="M133.666811 107.9634c-.48889-1.7875-4.89099-18.21249-9.78244-36.49999-4.89145-18.2875-9.3501-33.24677-9.90811-33.24281-.55801.004-14.73956 3.75946-31.51456 8.34556-17.252878 4.71676-30.913813 7.96991-31.452773 7.49003-1.782483-1.58711-1.895528-13.26854-.160867-16.62301.879685-1.70112 2.026781-3.35707 2.549101-3.67988.522321-.32281 16.745147-4.83275 36.050719-10.02208 37.54883-10.09311 37.61323-10.10126 42.6367-5.39631 1.16758 1.09355 2.83453 3.65107 3.70434 5.68338 1.19411 2.79004 21.19159 75.9488 22.01867 80.55304.13875.77242-19.13163 6.55535-22.04889 6.61675-.66164.0139-1.603-1.43718-2.09189-3.22468z" fill="#51672e"/>
	<path class="p2" d="M27.446582 94.9634c-1.820993-1.2375-4.122196-3.82499-5.113785-5.74999C19.422062 83.56272-.675616 6.91631.554143 6.15628 2.2038 5.13674 21.644815.06318 22.111938.5303c.228332.22833 4.732647 16.33794 10.009589 35.79913 5.276941 19.46119 9.928188 35.75244 10.336104 36.20277.407916.45034 14.863208-2.97925 32.122874-7.62132 17.259656-4.64206 31.493176-8.34853 31.630046-8.23661.13687.11193.6698 2.41652 1.1843 5.12132 1.08842 5.72206-.21611 12.45893-2.87923 14.86903-1.41361 1.27929-69.727645 20.54878-72.84938 20.54878-.49982 0-2.398666-1.0125-4.219659-2.25z" fill="#b4b2b4"/>
</svg>
